# xmcd CD database file
# Copyright (C) 1996 Ti Kan
#
# Track frame offsets:
#  183
#  13683
#  25383
#  36858
#  46233
#  56433
#  68133
#  78183
#  87858
#  99858
#  110433
#  122358
#  134883
#  145683
#  155433
#  163983
#  174558
#  185658
#  193683
#  206433
#  217833
#  228333
#  239283
#  252633
#
# Disc length: 3522 seconds
#
# Revision: 1
# Processed by: cddbd v1.4b41PL1 Copyright (c) Steve Scherf et al.
# Submitted via: CDWizzard Release:4.13
#
DISCID=490dc018
DTITLE=Various Artist - 1963 The Rock 'n' Roll era
DYEAR=1900
DGENRE=
TTITLE0=24 hours from Tulsa - Gene Pitney
TTITLE1=Foot Tapper - The Shadows
TTITLE2=Our day will come - Ruby and the Romant
TTITLE3=The first time
TTITLE4=It's my Party - Lesley Gore
TTITLE5=The night has a 1000 eyes - Bobby Vee
TTITLE6=Memphis Tennessee - Chuck Berry
TTITLE7=I'll never get over you - Johnny Kid &
TTITLE8=Mr Bass Man - Johnny Cymbal
TTITLE9=Pipeline - The Chantays
TTITLE10=Wipe out - The Sufaris
TTITLE11=Little town flirt - Del Shannon
TTITLE12=Diamonds - Jet Harris and Tony Meeham
TTITLE13=Tell him - Billie Davis
TTITLE14=He's so fine - Chiffons
TTITLE15=Some kinda fun - Chris Montez
TTITLE16=When will you say I love y - Billy Fury
TTITLE17=Hippy Hippy shake - Swinging blue jeans
TTITLE18=In Dreams - Roy Orbison
TTITLE19=Rhythum of the rain - The Cascades
TTITLE20=Foolish little girl - The Shirelles
TTITLE21=That's what love will do - Joe Brown &
TTITLE22=Folk Singer - Tommy Roe
TTITLE23=Just Like Eddie - Heinz
EXTD=
EXTT0=
EXTT1=
EXTT2=
EXTT3=
EXTT4=
EXTT5=
EXTT6=
EXTT7=
EXTT8=
EXTT9=
EXTT10=
EXTT11=
EXTT12=
EXTT13=
EXTT14=
EXTT15=
EXTT16=
EXTT17=
EXTT18=
EXTT19=
EXTT20=
EXTT21=
EXTT22=
EXTT23=
PLAYORDER=
